{
    "asset" : {
        "generator" : "Khronos glTF Blender I/O v3.4.50",
        "version" : "2.0"
    },
    "extensionsUsed" : [
        "KHR_materials_specular",
        "KHR_materials_ior",
        "KHR_texture_transform"
    ],
    "extensionsRequired" : [
        "KHR_texture_transform"
    ],
    "scene" : 0,
    "scenes" : [
        {
            "name" : "Scene",
            "nodes" : [
                0,
                1,
                2,
                3
            ]
        }
    ],
    "nodes" : [
        {
            "mesh" : 0,
            "name" : "Can",
            "scale" : [
                0.033149998635053635,
                0.08399999886751175,
                0.033149998635053635
            ],
            "translation" : [
                0,
                0.8495215177536011,
                0
            ]
        },
        {
            "mesh" : 1,
            "name" : "Kapsyl",
            "scale" : [
                0.008802377618849277,
                0.008802377618849277,
                0.008802377618849277
            ],
            "translation" : [
                0,
                0.9311205744743347,
                0
            ]
        },
        {
            "mesh" : 2,
            "name" : "Label"
        },
        {
            "mesh" : 3,
            "name" : "lock",
            "scale" : [
                0.011065674014389515,
                0.01959446631371975,
                0.011065674014389515
            ],
            "translation" : [
                0,
                0.9290750622749329,
                0.008841815404593945
            ]
        }
    ],
    "materials" : [
        {
            "doubleSided" : true,
            "extensions" : {
                "KHR_materials_specular" : {
                    "specularColorFactor" : [
                        1.2880783842597008,
                        1.2880783842597008,
                        1.2880783842597008
                    ]
                },
                "KHR_materials_ior" : {
                    "ior" : 1.4500000476837158
                }
            },
            "name" : "Metallic",
            "pbrMetallicRoughness" : {
                "baseColorFactor" : [
                    0.9559626579284668,
                    1,
                    0.9364180564880371,
                    1
                ],
                "metallicFactor" : 0.6113636493682861,
                "roughnessFactor" : 0.13409090042114258
            }
        },
        {
            "doubleSided" : true,
            "extensions" : {
                "KHR_materials_specular" : {
                    "specularColorTexture" : {
                        "extensions" : {
                            "KHR_texture_transform" : {
                                "offset" : [
                                    0,
                                    0.06600002199411392
                                ],
                                "scale" : [
                                    1,
                                    0.8999999761581421
                                ]
                            }
                        },
                        "index" : 0
                    }
                },
                "KHR_materials_ior" : {
                    "ior" : 1.4500000476837158
                }
            },
            "name" : "Label",
            "pbrMetallicRoughness" : {
                "baseColorTexture" : {
                    "extensions" : {
                        "KHR_texture_transform" : {
                            "offset" : [
                                0,
                                0.06600002199411392
                            ],
                            "scale" : [
                                1,
                                0.8999999761581421
                            ]
                        }
                    },
                    "index" : 1
                },
                "metallicFactor" : 0,
                "roughnessFactor" : 0.5568181872367859
            }
        }
    ],
    "meshes" : [
        {
            "name" : "Cylinder",
            "primitives" : [
                {
                    "attributes" : {
                        "POSITION" : 0,
                        "TEXCOORD_0" : 1,
                        "NORMAL" : 2
                    },
                    "indices" : 3,
                    "material" : 0
                }
            ]
        },
        {
            "name" : "Plane",
            "primitives" : [
                {
                    "attributes" : {
                        "POSITION" : 4,
                        "TEXCOORD_0" : 5,
                        "NORMAL" : 6
                    },
                    "indices" : 7,
                    "material" : 0
                }
            ]
        },
        {
            "name" : "Cylinder.002",
            "primitives" : [
                {
                    "attributes" : {
                        "POSITION" : 8,
                        "TEXCOORD_0" : 9,
                        "NORMAL" : 10
                    },
                    "indices" : 11,
                    "material" : 1
                }
            ]
        },
        {
            "name" : "Circle",
            "primitives" : [
                {
                    "attributes" : {
                        "POSITION" : 12,
                        "TEXCOORD_0" : 13,
                        "NORMAL" : 14
                    },
                    "indices" : 15,
                    "material" : 0
                }
            ]
        }
    ],
    "textures" : [
        {
            "sampler" : 0,
            "source" : 0
        },
        {
            "sampler" : 0,
            "source" : 1
        }
    ],
    "images" : [
        {
            "bufferView" : 12,
            "mimeType" : "image/png",
            "name" : "Image"
        },
        {
            "bufferView" : 13,
            "mimeType" : "image/png",
            "name" : "mala_26386_cartoon_in_the_style_of_a_beer_can_label_white_backg_79da9e3d-ce78-4f32-980b-bf316bc979a0 (1)"
        }
    ],
    "accessors" : [
        {
            "bufferView" : 0,
            "componentType" : 5126,
            "count" : 658,
            "max" : [
                1,
                0.9999997019767761,
                1
            ],
            "min" : [
                -1,
                -0.9812126159667969,
                -1
            ],
            "type" : "VEC3"
        },
        {
            "bufferView" : 1,
            "componentType" : 5126,
            "count" : 658,
            "type" : "VEC2"
        },
        {
            "bufferView" : 2,
            "componentType" : 5126,
            "count" : 658,
            "type" : "VEC3"
        },
        {
            "bufferView" : 3,
            "componentType" : 5123,
            "count" : 3444,
            "type" : "SCALAR"
        },
        {
            "bufferView" : 4,
            "componentType" : 5126,
            "count" : 236,
            "max" : [
                0.6260759830474854,
                0.10718273371458054,
                1
            ],
            "min" : [
                -0.6260325312614441,
                -0.02773919701576233,
                -1.126498818397522
            ],
            "type" : "VEC3"
        },
        {
            "bufferView" : 5,
            "componentType" : 5126,
            "count" : 236,
            "type" : "VEC2"
        },
        {
            "bufferView" : 6,
            "componentType" : 5126,
            "count" : 236,
            "type" : "VEC3"
        },
        {
            "bufferView" : 7,
            "componentType" : 5123,
            "count" : 384,
            "type" : "SCALAR"
        },
        {
            "bufferView" : 8,
            "componentType" : 5126,
            "count" : 99,
            "max" : [
                0.033149998635053635,
                0.9310433864593506,
                0.033149998635053635
            ],
            "min" : [
                -0.033149998635053635,
                0.773022472858429,
                -0.033149998635053635
            ],
            "type" : "VEC3"
        },
        {
            "bufferView" : 9,
            "componentType" : 5126,
            "count" : 99,
            "type" : "VEC2"
        },
        {
            "bufferView" : 10,
            "componentType" : 5126,
            "count" : 99,
            "type" : "VEC3"
        },
        {
            "bufferView" : 11,
            "componentType" : 5123,
            "count" : 384,
            "type" : "SCALAR"
        },
        {
            "bufferView" : 14,
            "componentType" : 5126,
            "count" : 192,
            "max" : [
                1,
                0.09588778764009476,
                1
            ],
            "min" : [
                -1,
                0.07112675160169601,
                -0.608413577079773
            ],
            "type" : "VEC3"
        },
        {
            "bufferView" : 15,
            "componentType" : 5126,
            "count" : 192,
            "type" : "VEC2"
        },
        {
            "bufferView" : 16,
            "componentType" : 5126,
            "count" : 192,
            "type" : "VEC3"
        },
        {
            "bufferView" : 17,
            "componentType" : 5123,
            "count" : 372,
            "type" : "SCALAR"
        }
    ],
    "bufferViews" : [
        {
            "buffer" : 0,
            "byteLength" : 7896,
            "byteOffset" : 0,
            "target" : 34962
        },
        {
            "buffer" : 0,
            "byteLength" : 5264,
            "byteOffset" : 7896,
            "target" : 34962
        },
        {
            "buffer" : 0,
            "byteLength" : 7896,
            "byteOffset" : 13160,
            "target" : 34962
        },
        {
            "buffer" : 0,
            "byteLength" : 6888,
            "byteOffset" : 21056,
            "target" : 34963
        },
        {
            "buffer" : 0,
            "byteLength" : 2832,
            "byteOffset" : 27944,
            "target" : 34962
        },
        {
            "buffer" : 0,
            "byteLength" : 1888,
            "byteOffset" : 30776,
            "target" : 34962
        },
        {
            "buffer" : 0,
            "byteLength" : 2832,
            "byteOffset" : 32664,
            "target" : 34962
        },
        {
            "buffer" : 0,
            "byteLength" : 768,
            "byteOffset" : 35496,
            "target" : 34963
        },
        {
            "buffer" : 0,
            "byteLength" : 1188,
            "byteOffset" : 36264,
            "target" : 34962
        },
        {
            "buffer" : 0,
            "byteLength" : 792,
            "byteOffset" : 37452,
            "target" : 34962
        },
        {
            "buffer" : 0,
            "byteLength" : 1188,
            "byteOffset" : 38244,
            "target" : 34962
        },
        {
            "buffer" : 0,
            "byteLength" : 768,
            "byteOffset" : 39432,
            "target" : 34963
        },
        {
            "buffer" : 0,
            "byteLength" : 348064,
            "byteOffset" : 40200
        },
        {
            "buffer" : 0,
            "byteLength" : 558118,
            "byteOffset" : 388264
        },
        {
            "buffer" : 0,
            "byteLength" : 2304,
            "byteOffset" : 946384,
            "target" : 34962
        },
        {
            "buffer" : 0,
            "byteLength" : 1536,
            "byteOffset" : 948688,
            "target" : 34962
        },
        {
            "buffer" : 0,
            "byteLength" : 2304,
            "byteOffset" : 950224,
            "target" : 34962
        },
        {
            "buffer" : 0,
            "byteLength" : 744,
            "byteOffset" : 952528,
            "target" : 34963
        }
    ],
    "samplers" : [
        {
            "magFilter" : 9729,
            "minFilter" : 9987
        }
    ],
    "buffers" : [
        {
            "byteLength" : 953272,
            "uri" : "data:application/octet-stream;base64,"
        }
    ]
}
